<svg xmlns="http://www.w3.org/2000/svg" width="88" height="15.285" viewBox="0 0 88 15.285">
  <path id="bluestorm" d="M1.614,13.606A5.627,5.627,0,0,1,.059,10.126c0-.005,0-.011,0-.017C.021,9.74.006,9.428,0,9.005L.007,6.617V1.925a.505.505,0,0,1,.236-.506L2.332.037a.173.173,0,0,1,.283.124V3.6a.292.292,0,0,0,.272.265h.007l1.4,0h.782a6.143,6.143,0,0,1,4.551,1.7A5.741,5.741,0,0,1,9.6,13.627a5.612,5.612,0,0,1-7.987-.022ZM2.636,6.778v.006L2.629,9.219c0,.221.011.381.029.57,0,0,0,.007,0,.011a2.936,2.936,0,0,0,5.013,1.828A3.015,3.015,0,0,0,7.684,7.4,3.2,3.2,0,0,0,5.31,6.505L2.925,6.5h0A.3.3,0,0,0,2.636,6.778Zm23.752,3.464V9.1A4.778,4.778,0,0,1,31.4,4.093,4.721,4.721,0,0,1,36.324,9.1v1.015a.317.317,0,0,1-.323.323H29.184a.179.179,0,0,0-.194.216,2.606,2.606,0,0,0,2.817,2.416,2.829,2.829,0,0,0,1.871-.69.293.293,0,0,1,.387,0l1.463.967a.306.306,0,0,1,.022.474,5.662,5.662,0,0,1-3.743,1.428C28.711,15.246,26.388,13.132,26.388,10.241Zm2.6-1.747a.215.215,0,0,0,.237.237h4.258a.2.2,0,0,0,.215-.237,2.2,2.2,0,0,0-2.28-2.221A2.273,2.273,0,0,0,28.99,8.494ZM72.6,15.241a.3.3,0,0,1-.3-.3V8.551c0-2.023.791-3.424,2.2-3.975a5.582,5.582,0,0,1,4.264-.122,3.679,3.679,0,0,1,1.984,1.594c.065.109.193.13.259,0a3.806,3.806,0,0,1,3.315-1.76C86.644,4.288,88,5.873,88,8.524V14.91a.3.3,0,0,1-.3.3H85.654a.3.3,0,0,1-.3-.3V8.632c0-1.5-.775-2.02-1.874-2.02a2.263,2.263,0,0,0-1.915.955.95.95,0,0,0-.28.63V14.91a.3.3,0,0,1-.3.3H78.958a.31.31,0,0,1-.3-.3V8.632a1.847,1.847,0,0,0-.83-1.79,2.465,2.465,0,0,0-1.006-.2c-1.1,0-1.873.522-1.873,2.02v6.279a.3.3,0,0,1-.3.3Zm-8.383,0a.3.3,0,0,1-.3-.3l0-6.628A4.428,4.428,0,0,1,68.393,3.93a4.567,4.567,0,0,1,1.064.126,4.027,4.027,0,0,1,2.518,1.628h0a.179.179,0,0,1-.044.255L70.412,6.979c-.046.032-.147.086-.217,0a1.967,1.967,0,0,0-1.447-.6,2.193,2.193,0,0,0-1.585.694A1.867,1.867,0,0,0,66.59,8.3c0,.038-.008.074-.011.111,0,.016,0,.032,0,.048V8.5c0,.024,0,.048,0,.072s0,.048,0,.073v6.058a.373.373,0,0,1-.01.077v.152a.3.3,0,0,1-.3.3Zm-51.567-.007a.3.3,0,0,1-.3-.305V2.58s0-.008,0-.013V1.925a.506.506,0,0,1,.235-.506L14.678.037a.173.173,0,0,1,.284.124V3.6h0V14.929a.3.3,0,0,1-.3.305Zm39.58-5.019v-1.2a5.281,5.281,0,0,1,10.549,0v1.2a5.281,5.281,0,0,1-10.549,0Zm2.583-1.173v1.151a2.7,2.7,0,1,0,5.382,0V9.042a2.7,2.7,0,1,0-5.382,0ZM36.838,13.635c-.071-.105-.082-.237.106-.361l1.246-.872c.265-.2.4-.143.483-.059a2.35,2.35,0,0,0,1.886.673c1.14,0,1.571-.587,1.571-1.173v-.066c0-.782-.56-1.042-1.873-1.347-1.765-.369-3.25-1.022-3.25-3.107V7.239c0-1.868,1.615-3.215,3.725-3.215a4.166,4.166,0,0,1,2.771.938c.017.011.2.171.215.185l.462.468a.178.178,0,0,1-.045.254L42.6,6.926c-.045.032-.146.085-.217,0a3.214,3.214,0,0,0-.3-.261,2.265,2.265,0,0,0-1.248-.4c-.8,0-1.226.478-1.226.978v.087c0,.739.581.978,1.83,1.239,1.679.347,3.272.89,3.272,3.107v.086c0,1.89-1.442,3.477-4.047,3.477A5.828,5.828,0,0,1,36.838,13.635Zm-16.167,1.6h-.023c-2.443-.015-4.446-1.18-4.6-4.237a.185.185,0,0,1-.006-.033v-.146c0-.066,0-.129,0-.2,0,0,0-.019,0-.039V4.391a.3.3,0,0,1,.3-.306h2.024a.3.3,0,0,1,.322.306v5.776s0,0,0,0c0,1.365.638,2.518,1.973,2.532,1.336-.014,1.973-1.167,1.973-2.532,0,0,0,0,0,0V4.391a.3.3,0,0,1,.323-.306H25a.3.3,0,0,1,.3.306v6.192c0,.02,0,.036,0,.039,0,.066,0,.13,0,.2v.146a.244.244,0,0,1-.006.033c-.15,3.057-2.153,4.222-4.6,4.237h-.023Zm25.985-2.9v-6.1a.2.2,0,0,0-.216-.217H45.322a.314.314,0,0,1-.3-.326V4.6a.3.3,0,0,1,.3-.3H46.44a.2.2,0,0,0,.216-.217V3.621h0v-1.7a.506.506,0,0,1,.235-.506L48.979.037a.173.173,0,0,1,.284.124V2.58s0,.005,0,.008V4.082A.211.211,0,0,0,49.5,4.3h2.282a.3.3,0,0,1,.3.3V5.69a.314.314,0,0,1-.3.326H49.5a.21.21,0,0,0-.237.217v5.779a1.02,1.02,0,0,0,1.12,1,2,2,0,0,0,1.1-.326.326.326,0,0,1,.431.131l.753,1.281a.31.31,0,0,1-.129.456,5.744,5.744,0,0,1-2.648.674C47.755,15.228,46.656,14.221,46.656,12.331Z" fill="#36a9dd"/>
</svg>
